<svg width="32" height="32" viewBox="0 0 32 32" fill="none" xmlns="http://www.w3.org/2000/svg">
<g clip-path="url(#clip0_5_5)">
<path d="M0.961742 16.5L15.079 1.41659C15.3881 0.863752 16.1824 0.860513 16.4962 1.41061L30.9165 16.5C31.2584 17.0994 31.5958 29.5148 30.9165 29.3933L18 28.5C16 28.5 15.1745 28.4826 15.079 28.5L0.96174 29.3896C0.284635 29.513 0.625928 17.1007 0.961742 16.5Z" fill="url(#paint0_linear_5_5)"/>
<path d="M28.7539 1.00678L18.8986 2.88096C18.8198 2.89594 18.7484 2.93588 18.6956 2.99452C18.6428 3.05316 18.6116 3.12716 18.6069 3.2049L18.0006 13.1418C17.9973 13.1963 18.0071 13.2508 18.0293 13.301C18.0514 13.3511 18.0853 13.3956 18.1283 13.4309C18.1713 13.4661 18.2221 13.4911 18.2768 13.504C18.3315 13.5168 18.3885 13.5171 18.4433 13.5048L21.1872 12.8903C21.4439 12.8328 21.6759 13.0522 21.6231 13.3028L20.8079 17.177C20.7531 17.4377 21.0052 17.6606 21.2676 17.5833L22.9624 17.0836C23.2251 17.0062 23.4776 17.2298 23.422 17.4907L22.1265 23.5762C22.0455 23.9568 22.5672 24.1644 22.7847 23.8381L22.9301 23.6201L30.9608 8.06608C31.0954 7.80566 30.8634 7.5087 30.5688 7.56394L27.7443 8.09295C27.4789 8.1426 27.2531 7.90271 27.328 7.65079L29.1714 1.44883C29.2464 1.19626 29.0196 0.956269 28.7539 1.00678Z" fill="url(#paint1_linear_5_5)"/>
</g>
<defs>
<linearGradient id="paint0_linear_5_5" x1="33" y1="32.5" x2="2.5" y2="-2" gradientUnits="userSpaceOnUse">
<stop stop-color="#41D1FF"/>
<stop offset="1" stop-color="#BD34FE"/>
</linearGradient>
<linearGradient id="paint1_linear_5_5" x1="581.888" y1="52.566" x2="860.521" y2="2022.03" gradientUnits="userSpaceOnUse">
<stop stop-color="#FFEA83"/>
<stop offset="0.08333" stop-color="#FFDD35"/>
<stop offset="1" stop-color="#FFA800"/>
</linearGradient>
<clipPath id="clip0_5_5">
<rect width="31.88" height="32" fill="white"/>
</clipPath>
</defs>
</svg>
